<svg id="Group_1745" data-name="Group 1745" xmlns="http://www.w3.org/2000/svg" width="33" height="33" viewBox="0 0 33 33">
  <circle id="Ellipse_39" data-name="Ellipse 39" cx="16.5" cy="16.5" r="16.5" fill="#333"/>
  <g id="Group_164" data-name="Group 164" transform="translate(8 12)">
    <path id="Path_445" data-name="Path 445" d="M9.836.82,5.328,5.328a.48.48,0,0,1-.679,0L.141.82A.48.48,0,0,1,.132.149h0A.48.48,0,0,1,.82.141L4.648,3.979a.48.48,0,0,0,.68,0L9.156.141a.48.48,0,0,1,.688.008h0A.48.48,0,0,1,9.836.82Z" transform="translate(5.469 0) rotate(90)" fill="#fff" stroke="#fff" stroke-width="1"/>
    <path id="Path_446" data-name="Path 446" d="M9.836.82,5.328,5.328a.48.48,0,0,1-.679,0L.141.82A.48.48,0,0,1,.132.149h0A.48.48,0,0,1,.82.141L4.648,3.979a.48.48,0,0,0,.68,0L9.156.141a.48.48,0,0,1,.688.008h0A.48.48,0,0,1,9.836.82Z" transform="translate(11 9.977) rotate(-90)" fill="#fff" stroke="#fff" stroke-width="1"/>
  </g>
</svg>
