<svg xmlns="http://www.w3.org/2000/svg" width="39.494" height="36.473" viewBox="0 0 39.494 36.473">
  <g id="Group_863" data-name="Group 863" transform="translate(278.334 -287.39)">
    <path id="Path_978" data-name="Path 978" d="M-241.576,322.254c.683,0,1.242.016,1.8,0s.917.14.937.771c.021.674-.336.844-.944.842-3.809-.012-7.617,0-11.426,0q-12.976,0-25.952-.011c-.342,0-.795.012-.994-.186a1.18,1.18,0,0,1-.134-.974c.05-.19.418-.391.661-.417.577-.061,1.165-.02,1.975-.02,0-2.315-.027-4.55,0-6.784q.186-13.018.4-26.037c.025-1.654.4-2.03,2.045-2.036.531,0,1.063-.011,1.594,0,1.252.021,1.719.445,1.748,1.709.058,2.509.067,5.019.111,7.528q.138,8.014.291,16.028c0,.2.025.406.043.677h1.238c0-1.544,0-3.1,0-4.654s.367-1.928,1.931-1.93q7.307-.009,14.615,0h1.048c0-1.4,0-2.693,0-3.986,0-1.519.424-1.932,1.963-1.933.354,0,.709-.006,1.063,0a1.84,1.84,0,0,1,1.781,1.217c.565,1.361,1.159,2.711,1.71,4.077a.871.871,0,0,0,.906.641c1.222.034,1.576.446,1.578,1.72q.01,6.377.006,12.754Zm-24.937-13.844V322.2h23.289V308.41Zm-7.117-19.347c-.184,11.1-.366,22.094-.548,33.136h3.249c-.18-11.069-.36-22.082-.54-33.136Zm24.71,17.615h3.341c-.473-1.129-.9-2.152-1.33-3.175-.51-1.211-.669-1.283-2.012-.9Zm-20.456,12.148h1.15v-3.743h-1.15Zm1.154,1.7h-1.042V322.2h1.042Z" transform="translate(0 0)" fill="#707070"/>
    <path id="Path_979" data-name="Path 979" d="M-200.017,414.841c.677,0,1.354.008,2.031,0,.509-.008.758.216.766.735s-.177.861-.75.863c-1.354,0-2.708,0-4.062,0a.708.708,0,0,1-.813-.8c-.006-.551.233-.813.8-.8C-201.372,414.853-200.694,414.841-200.017,414.841Z" transform="translate(-62.117 -104.869)" fill="#707070"/>
    <path id="Path_980" data-name="Path 980" d="M-200.038,435.737c-.677,0-1.355-.008-2.032,0-.51.008-.76-.219-.767-.736s.173-.861.75-.862c1.355,0,2.709,0,4.063,0a.707.707,0,0,1,.811.8c.007.555-.234.812-.794.8-.677-.014-1.354,0-2.032,0Z" transform="translate(-62.123 -120.752)" fill="#707070"/>
    <path id="Path_981" data-name="Path 981" d="M-200.049,453.754q1.06,0,2.12,0c.532,0,.714.295.713.789s-.2.8-.714.806c-1.384.01-2.768,0-4.152,0-.569,0-.767-.325-.759-.855a.657.657,0,0,1,.76-.745C-201.4,453.759-200.727,453.753-200.049,453.754Z" transform="translate(-62.12 -136.89)" fill="#707070"/>
    <path id="Path_982" data-name="Path 982" d="M-158.79,434.118c.647,0,1.294.01,1.94,0,.578-.011.868.216.863.832,0,.577-.273.78-.813.776-1.323-.011-2.646-.013-3.969,0-.548.006-.821-.215-.825-.774,0-.592.268-.856.864-.837C-160.084,434.134-159.437,434.118-158.79,434.118Z" transform="translate(-96.06 -120.731)" fill="#707070"/>
    <path id="Path_983" data-name="Path 983" d="M-158.858,455.334c-.647,0-1.293-.005-1.94,0-.557.006-.8-.275-.8-.815s.243-.8.8-.794c1.352.015,2.7.008,4.056,0,.508,0,.744.223.748.748s-.187.85-.752.853C-157.447,455.337-158.153,455.334-158.858,455.334Z" transform="translate(-96.058 -136.87)" fill="#707070"/>
    <path id="Path_984" data-name="Path 984" d="M-158.818,414.851c.706,0,1.411.006,2.117,0,.526-.006.728.255.724.765,0,.482-.149.821-.683.825q-2.116.016-4.233,0c-.542,0-.689-.359-.686-.826,0-.486.193-.78.733-.769C-160.171,414.861-159.494,414.851-158.818,414.851Z" transform="translate(-96.072 -104.878)" fill="#707070"/>
    <path id="Path_985" data-name="Path 985" d="M-117.416,414.852c.675,0,1.35.008,2.024,0,.531-.008.724.257.717.764-.007.472-.126.823-.672.826q-2.112.011-4.224,0c-.545,0-.67-.353-.673-.825,0-.5.179-.777.716-.769C-118.825,414.861-118.121,414.852-117.416,414.852Z" transform="translate(-130.084 -104.88)" fill="#707070"/>
    <path id="Path_986" data-name="Path 986" d="M-117.48,435.748c-.675,0-1.35-.009-2.024,0-.518.009-.74-.23-.744-.745s.145-.859.733-.858c1.379,0,2.757,0,4.136,0,.53,0,.7.308.7.8s-.141.8-.691.795c-.7-.007-1.408,0-2.112,0Z" transform="translate(-130.082 -120.76)" fill="#707070"/>
    <path id="Path_987" data-name="Path 987" d="M-117.377,453.748c.649,0,1.3.006,1.948,0,.513-.006.749.223.749.749s-.177.854-.755.853q-2.037,0-4.073,0c-.582,0-.75-.329-.746-.859s.236-.753.752-.746C-118.793,453.755-118.085,453.748-117.377,453.748Z" transform="translate(-130.077 -136.885)" fill="#707070"/>
  </g>
</svg>
