<svg xmlns="http://www.w3.org/2000/svg" width="37.356" height="37.491" viewBox="0 0 37.356 37.491">
  <g id="Group_1421" data-name="Group 1421" transform="translate(60.596 -219.381)">
    <path id="Path_1278" data-name="Path 1278" d="M3.545,277.008l.708,1.639c1.528.119,1.528.119,1.531,1.238,0,.813-.076.865-1.51.989l-.662,1.634c.2.395.9.57.749,1.157a2.3,2.3,0,0,1-.645.9c-.455.473-.634.411-1.641-.457-.507.2-1.013.385-1.5.611a.47.47,0,0,0-.159.383c.093,1.25-.4,1.249-1.278,1.233-.665-.012-.894-.229-.907-.9,0-.2,0-.409,0-.6l-1.577-.639a4.506,4.506,0,0,1-1.225.7c-.232.049-.587-.312-.834-.544-.57-.535-.537-.636.38-1.742l-.709-1.648c-.209,0-.456,0-.7,0a1.267,1.267,0,0,1-.349-.027c-.408-.126-.57-.64-.468-1.477.049-.4.284-.71.685-.654.725.1,1.03-.221,1.135-.876a1.558,1.558,0,0,1,.177-.4c.063-.13.133-.257.155-.3a7.261,7.261,0,0,1-.73-1.216c-.058-.155.187-.464.352-.652.264-.3.544-.731,1.008-.551a4.4,4.4,0,0,1,.961.709l1.606-.689c.124-1.427.173-1.525.879-1.528.413,0,.936-.157,1.163.3a4.388,4.388,0,0,1,.229,1.227l1.594.642c.394-.186.559-.892,1.144-.75a2.589,2.589,0,0,1,.909.636.661.661,0,0,1,.184.938A6.7,6.7,0,0,1,3.545,277.008Z" transform="translate(-41.199 -41.692)" fill="none" stroke="#707070" stroke-width="1"/>
    <path id="Path_1279" data-name="Path 1279" d="M16.152,223.338a8.029,8.029,0,0,0,.9.05c2.166-.11,4.332-.234,6.5-.352.422-.023.906-.072.942.518.035.57-.423.628-.86.652-2.288.126-4.575.259-6.863.378a1.571,1.571,0,0,1-1.759-1,1.509,1.509,0,0,1,.914-1.8A9.979,9.979,0,0,1,18.106,221c2.224-.529,4.453-1.052,6.7-1.475A8.1,8.1,0,0,1,30.99,220.9a37.011,37.011,0,0,0,3.492,2.116,2.857,2.857,0,0,0,1.6.142c.271-.036.568-.389.725-.67a1.7,1.7,0,0,1,1.422-1.008c.991-.046,1.987-.012,3.022-.012V229.9c-1.077,0-2.163.026-3.246-.019a1.045,1.045,0,0,1-.743-.409c-.358-.585-.822-.52-1.371-.417a9.7,9.7,0,0,1-4.557.142,6.977,6.977,0,0,1-1.8-.764c-1.128-.72-2.2-1.523-3.289-2.309a4.484,4.484,0,0,1-.8-.744,1.512,1.512,0,0,1-.3-1.875,1.383,1.383,0,0,1,1.744-.52,19.1,19.1,0,0,1,2.124.765,12.193,12.193,0,0,1,1.781.837c.189.115.212.5.31.767-.269.085-.589.309-.8.231-.933-.347-1.827-.8-2.752-1.174a3.951,3.951,0,0,0-1.432-.27,14.189,14.189,0,0,0,4.456,3.514c1.959,1.112,4.026.425,6.073.073v-3.452c-1.537.58-2.747-.133-3.946-.842a22.527,22.527,0,0,1-2.015-1.324,7.477,7.477,0,0,0-6.3-1.361c-2.284.488-4.555,1.04-6.82,1.612a8.537,8.537,0,0,0-1.5.7Z" transform="translate(-64.489 0)" fill="#707070"/>
    <path id="Path_1280" data-name="Path 1280" d="M-35.523,410.1a8.736,8.736,0,0,0-.91-.045c-2.166.11-4.332.232-6.5.351-.429.023-.9.053-.924-.537-.019-.57.446-.61.879-.634,2.263-.124,4.526-.254,6.79-.373a1.6,1.6,0,0,1,1.82,1.02,1.58,1.58,0,0,1-1,1.828,7.027,7.027,0,0,1-1.632.612c-2.392.559-4.784,1.131-7.2,1.6a8.061,8.061,0,0,1-6.179-1.389,34.236,34.236,0,0,0-3.5-2.107,3.183,3.183,0,0,0-1.666-.11c-.227.023-.488.349-.612.6a1.749,1.749,0,0,1-1.61,1.071c-.924.021-1.849.005-2.833.005v-8.459c1.035,0,2.077-.046,3.112.026a1.549,1.549,0,0,1,.983.553.87.87,0,0,0,.992.323,10.582,10.582,0,0,1,4.847-.167,6.421,6.421,0,0,1,1.675.7c1.241.815,2.439,1.7,3.632,2.582a3.554,3.554,0,0,1,.783.856,1.36,1.36,0,0,1,.063,1.579,1.146,1.146,0,0,1-1.4.533c-1.464-.51-2.9-1.1-4.328-1.71a.783.783,0,0,1-.176-.7.924.924,0,0,1,.784-.217c.979.365,1.921.828,2.892,1.217a3.074,3.074,0,0,0,1.267.194,15.532,15.532,0,0,0-4.488-3.52c-1.4-.825-3.523-.745-6.042-.019v3.439a3.611,3.611,0,0,1,3.378.5,24.863,24.863,0,0,1,2.46,1.575,7.48,7.48,0,0,0,6.277,1.444c2.447-.537,4.88-1.139,7.309-1.752a5.229,5.229,0,0,0,1.135-.609Z" transform="translate(0 -157.189)" fill="#707070"/>
    <path id="Path_1281" data-name="Path 1281" d="M49.459,327.651a2.148,2.148,0,1,0-2.075,2.2A2.191,2.191,0,0,0,49.459,327.651Z" transform="translate(-89.237 -89.559)" fill="none" stroke="#707070" stroke-width="1"/>
  </g>
</svg>
