<svg xmlns="http://www.w3.org/2000/svg" width="38.355" height="34.579" viewBox="0 0 38.355 34.579">
  <g id="Group_866" data-name="Group 866" transform="translate(-109.574 -629.474)">
    <g id="Group_864" data-name="Group 864" transform="translate(109.574 629.552)">
      <g id="Path_988" data-name="Path 988" transform="translate(-147.574 -475.016)" fill="none" stroke-miterlimit="10">
        <path d="M160.454,509.5q-5.644,0-11.288,0c-1.42,0-1.583-.168-1.584-1.594,0-3.482-.02-6.965.006-10.447a6.336,6.336,0,0,1,6.681-6.605q6.244-.019,12.488,0a6.32,6.32,0,0,1,6.5,6.426c.051,3.6-.008,7.2.024,10.807.009,1.029-.39,1.432-1.422,1.424C168.06,509.486,164.257,509.5,160.454,509.5Z" stroke="none"/>
        <path d="M 171.27978515625 507.5123596191406 C 171.2709503173828 506.0723571777344 171.2746734619141 504.622802734375 171.2782897949219 503.2152099609375 C 171.2832641601563 501.2783203125 171.2884063720703 499.2754821777344 171.2605438232422 497.3146667480469 C 171.2420959472656 496.0235290527344 170.7990112304688 494.9138793945313 169.9792175292969 494.1056823730469 C 169.1593475341797 493.2974243164063 168.0420227050781 492.8666687011719 166.7481384277344 492.8599548339844 C 164.8863677978516 492.8504333496094 162.9378967285156 492.8457946777344 160.7913818359375 492.8457946777344 C 158.8796844482422 492.8457946777344 156.8094940185547 492.8494567871094 154.2764892578125 492.8573303222656 C 151.4067687988281 492.8663940429688 149.610595703125 494.636962890625 149.5889434814453 497.4779968261719 C 149.5685272216797 500.1708068847656 149.5736999511719 502.9135131835938 149.5787048339844 505.5659484863281 C 149.5799407958984 506.2119750976563 149.5811614990234 506.8580627441406 149.58203125 507.5041809082031 C 150.9915924072266 507.5058898925781 152.4007415771484 507.5064392089844 153.8103637695313 507.5064392089844 C 155.0353546142578 507.5064392089844 156.2605285644531 507.5060119628906 157.4856872558594 507.505615234375 C 158.4751892089844 507.5052795410156 159.4647064208984 507.5049438476563 160.4540863037109 507.5048217773438 C 161.470458984375 507.5046997070313 162.4868316650391 507.5032653808594 163.5032196044922 507.5018310546875 C 164.571533203125 507.5003051757813 165.6398620605469 507.4988098144531 166.7081909179688 507.4988098144531 C 168.4673309326172 507.4988098144531 169.938232421875 507.5031433105469 171.27978515625 507.5123596191406 M 171.8931884765625 509.5169372558594 C 171.8827972412109 509.5169372558594 171.8724670410156 509.5169067382813 171.8619537353516 509.5168151855469 C 170.1440734863281 509.5027160644531 168.4261322021484 509.4988098144531 166.7081909179688 509.4988098144531 C 164.6235504150391 509.4988098144531 162.5389251708984 509.5045471191406 160.454345703125 509.5048217773438 C 158.2398376464844 509.5050964355469 156.0248107910156 509.5064392089844 153.8103637695313 509.5064392089844 C 152.2623443603516 509.5064392089844 150.7148895263672 509.5057678222656 149.1668243408203 509.5036315917969 C 147.7470550537109 509.5014343261719 147.5839691162109 509.3354797363281 147.58251953125 507.90966796875 C 147.5786895751953 504.4273986816406 147.5625915527344 500.9450988769531 147.5890045166016 497.4628295898438 C 147.6190490722656 493.5215454101563 150.3087005615234 490.869873046875 154.2701568603516 490.8573303222656 C 156.4437561035156 490.8505859375 158.6177825927734 490.8457946777344 160.7913818359375 490.8457946777344 C 162.780517578125 490.8457946777344 164.7692413330078 490.8497924804688 166.7583770751953 490.8599853515625 C 170.4755706787109 490.8792114257813 173.20703125 493.555908203125 173.2603454589844 497.2860717773438 C 173.3115081787109 500.8877258300781 173.2526550292969 504.4908447265625 173.2841339111328 508.0929260253906 C 173.2929077148438 509.1109313964844 172.9017791748047 509.5169372558594 171.8931884765625 509.5169372558594 Z" stroke="none" fill="#707070"/>
      </g>
      <g id="Path_989" data-name="Path 989" transform="translate(-166.742 -424.94)" fill="none" stroke-miterlimit="10">
        <path d="M172.8,431.74a6.793,6.793,0,1,1,6.8,6.8A6.776,6.776,0,0,1,172.8,431.74Z" stroke="none"/>
        <path d="M 179.5825042724609 426.9400024414063 C 178.3008728027344 426.9401550292969 177.0982513427734 427.4382629394531 176.1961669921875 428.3425598144531 C 175.2934722900391 429.2474365234375 174.7979736328125 430.452392578125 174.8009033203125 431.7355651855469 C 174.8068389892578 434.3835144042969 176.9410705566406 436.5378112792969 179.5584869384766 436.5378112792969 L 179.5856323242188 436.5377197265625 C 180.8722076416016 436.5304565429688 182.076904296875 436.028564453125 182.9778137207031 435.1244506835938 C 183.8800506591797 434.2189636230469 184.3802032470703 433.0081481933594 184.3861541748047 431.715087890625 C 184.3918914794922 430.4557800292969 183.8999328613281 429.2648010253906 183.0008697509766 428.3616333007813 C 182.0882873535156 427.4448852539063 180.8744964599609 426.9400024414063 179.5830993652344 426.9400024414063 L 179.5825042724609 426.9400024414063 M 179.5830993652344 424.9400024414063 C 183.3417510986328 424.9400024414063 186.4031677246094 427.9928283691406 186.3861236572266 431.7242126464844 C 186.3688201904297 435.4925231933594 183.3556213378906 438.5165100097656 179.5968933105469 438.5376892089844 C 179.5841522216797 438.5377502441406 179.5712280273438 438.5377807617188 179.5584869384766 438.5377807617188 C 175.8454437255859 438.5377807617188 172.8093109130859 435.4878234863281 172.8009185791016 431.7400512695313 C 172.7922821044922 427.9817810058594 175.8251647949219 424.9404907226563 179.5822448730469 424.9400024414063 C 179.5824737548828 424.9400024414063 179.5828704833984 424.9400024414063 179.5830993652344 424.9400024414063 Z" stroke="none" fill="#707070"/>
      </g>
    </g>
    <g id="Group_865" data-name="Group 865" transform="translate(133.483 630.473)">
      <path id="Path_990" data-name="Path 990" d="M259.353,439.277a2.733,2.733,0,0,1-.288.482c-.308.336-.634.655-.964.97a.667.667,0,0,1-.957.078c-.346-.234-.678-.489-1.023-.724s-.576-.128-.652.272-.135.824-.211,1.235a.665.665,0,0,1-.727.626c-.468.013-.937.014-1.405,0a.654.654,0,0,1-.7-.611c-.075-.385-.135-.773-.2-1.159-.091-.516-.316-.607-.753-.3-.311.218-.614.447-.929.66a.678.678,0,0,1-.987-.09q-.478-.462-.939-.941a.681.681,0,0,1-.073-.988c.221-.324.458-.637.681-.96.274-.4.177-.624-.3-.711-.374-.067-.75-.119-1.124-.185a.7.7,0,0,1-.676-.8c0-.418-.005-.836,0-1.254a.7.7,0,0,1,.677-.8c.386-.07.776-.121,1.161-.192.426-.079.526-.316.281-.675-.227-.335-.473-.658-.7-.992a.675.675,0,0,1,.076-.987q.46-.479.94-.94a.678.678,0,0,1,.987-.086c.324.221.638.457.961.68.4.276.633.18.714-.288.07-.4.128-.8.209-1.2a.65.65,0,0,1,.7-.606c.481-.012.962-.008,1.443,0a.651.651,0,0,1,.679.591c.069.373.122.75.187,1.124.1.577.316.669.786.336.289-.2.574-.416.865-.618a.7.7,0,0,1,1.047.078q.463.45.913.913a.685.685,0,0,1,.088.988c-.214.314-.441.618-.659.93-.317.453-.22.671.336.764.35.058.7.112,1.049.172a.712.712,0,0,1,.695.794c.008.443.01.887,0,1.329a.676.676,0,0,1-.627.732c-.41.077-.826.127-1.236.207s-.5.317-.268.657.477.655.7.993A3.637,3.637,0,0,1,259.353,439.277Zm-5.513-2.079a1.7,1.7,0,1,0-1.709-1.708A1.705,1.705,0,0,0,253.839,437.2Z" transform="translate(-247.115 -428.776)" fill="none" stroke="#707070" stroke-miterlimit="10" stroke-width="2"/>
    </g>
  </g>
</svg>
