<svg xmlns="http://www.w3.org/2000/svg" width="9.052" height="16.292" viewBox="0 0 9.052 16.292">
  <g id="Group_1186" data-name="Group 1186" transform="translate(418.989 -291.233) rotate(90)">
    <path id="Path_1204" data-name="Path 1204" d="M299.334,418.989c-.752-.76-1.493-1.516-2.241-2.265q-2.773-2.779-5.546-5.558a.983.983,0,0,1-.314-.559.817.817,0,0,1,.28-.558.571.571,0,0,1,.72.041q1.833,1.2,3.671,2.393c1.047.681,2.1,1.354,3.138,2.047a.476.476,0,0,0,.623.009c2.274-1.494,4.56-2.972,6.841-4.454a.626.626,0,0,1,.828.938c-.038.045-.082.085-.123.126l-7.635,7.621C299.51,418.835,299.438,418.895,299.334,418.989Z" transform="translate(0)" fill="#707070"/>
  </g>
</svg>
