<svg xmlns="http://www.w3.org/2000/svg" width="31.299" height="35.057" viewBox="0 0 31.299 35.057">
  <g id="Group_870" data-name="Group 870" transform="translate(-387.885 -722.991)">
    <path id="Path_1002" data-name="Path 1002" d="M413.183,737.255v.766q0,6.888,0,13.775c0,1.038-.151,1.191-1.186,1.191H399c0,.613,0,1.2,0,1.779,0,.845.036,1.693-.025,2.534a.715.715,0,0,1-1.294.467c-.571-.555-1.077-1.177-1.684-1.858-.517.58-.98,1.165-1.517,1.673a1.436,1.436,0,0,1-.966.434c-.484-.054-.53-.536-.527-.975.01-1.32,0-2.64,0-4.054h-3.8c-1.192,0-1.3-.1-1.3-1.274q0-11.822,0-23.643a4.865,4.865,0,0,1,5.1-5.076q10.794-.005,21.588,0a4.376,4.376,0,0,1,4.607,4.6c.009,2.855,0,5.711,0,8.566,0,.852-.231,1.087-1.1,1.091C416.48,737.261,414.883,737.255,413.183,737.255Zm-1.345-12.749c-.232-.016-.431-.042-.63-.042q-9.116,0-18.232,0a3.287,3.287,0,0,0-3.56,3.6q-.006,11.343,0,22.686v.7h3.664c0-.878-.029-1.7.01-2.517a1.26,1.26,0,0,0-.566-1.194A5.938,5.938,0,0,1,397.96,737.4a5.62,5.62,0,0,1,4.008,4.614,5.765,5.765,0,0,1-2.22,5.71c-.211.174-.489.426-.5.654-.054,1.02-.024,2.044-.024,3.1h12.614ZM396.2,738.581a4.458,4.458,0,1,0-.088,8.916,4.528,4.528,0,0,0,4.5-4.434A4.432,4.432,0,0,0,396.2,738.581Zm17.248-14.165v11.327h4.2c0-3.023.073-6.01-.038-8.989a2.38,2.38,0,0,0-1.964-2.141A13.678,13.678,0,0,0,413.45,724.416Zm-18.794,24.456v6.491c.227-.238.383-.391.528-.555.891-1.007,1.116-1,2.025.03.156.177.33.339.548.561v-6.527Z" transform="translate(0)" fill="#707070"/>
    <path id="Path_1003" data-name="Path 1003" d="M423.235,762.811c-2.695,0-5.389,0-8.084,0-.521,0-1.015-.056-1.024-.711-.008-.638.463-.76.995-.76q8.152,0,16.3,0c.505,0,.94.111.946.725.006.662-.453.746-.986.745C428.67,762.807,425.952,762.811,423.235,762.811Z" transform="translate(-22.644 -33.094)" fill="#707070"/>
    <path id="Path_1004" data-name="Path 1004" d="M423.038,802.812c-2.719,0-5.437.01-8.156-.016a1.31,1.31,0,0,1-.882-.352.668.668,0,0,1,.431-1.057,2.7,2.7,0,0,1,.613-.04q7.95,0,15.9,0c.137,0,.274,0,.411,0,.478.021.793.229.785.748s-.327.714-.81.714q-3.29,0-6.579,0Z" transform="translate(-22.41 -67.608)" fill="#707070"/>
  </g>
</svg>
