<svg xmlns="http://www.w3.org/2000/svg" width="54.118" height="47.355" viewBox="0 0 54.118 47.355">
  <defs>
    <style>
      .cls-1 {
        fill: #67d1d1;
      }

      .cls-2 {
        fill: #5de3bf;
      }

      .cls-3 {
        fill: #fff;
      }
    </style>
  </defs>
  <g id="Group_2515" data-name="Group 2515" transform="translate(-575.992 -326.995)">
    <path id="Path_1642" data-name="Path 1642" class="cls-1" d="M602.907,367.582q-11.972,0-23.945,0c-2.22,0-2.966-.735-2.967-2.935q-.006-17.4,0-34.79c0-2.093.781-2.859,2.9-2.859q24.155,0,48.311,0c2.125,0,2.895.759,2.9,2.865q.008,17.465,0,34.93c0,2-.8,2.787-2.834,2.788Q615.09,367.589,602.907,367.582Zm11.418-20.293c0,2.859-.009,5.719,0,8.578.007,1.657.858,2.668,2.218,2.689s2.28-.987,2.283-2.621q.017-8.648,0-17.3c0-1.635-.913-2.642-2.286-2.619s-2.207,1.026-2.214,2.691C614.316,341.571,614.325,344.43,614.325,347.29Zm-9.022,3.526c0-1.826.017-3.653-.005-5.479a2.279,2.279,0,0,0-2.206-2.551c-1.369-.024-2.284.99-2.291,2.612q-.023,5.268,0,10.537c.007,1.632.906,2.64,2.279,2.619s2.206-1.016,2.221-2.68C605.316,354.188,605.3,352.5,605.3,350.816Zm-13.528,2.25c0-1.17.038-2.341-.01-3.509a2.236,2.236,0,0,0-2.208-2.262,2.193,2.193,0,0,0-2.268,2.192q-.082,3.437,0,6.878a2.19,2.19,0,0,0,2.268,2.192,2.23,2.23,0,0,0,2.207-2.262C591.813,355.22,591.775,354.142,591.775,353.066Z" transform="translate(0)"/>
    <path id="Path_1643" data-name="Path 1643" class="cls-2" d="M643.222,483.5c-2.86,0-5.72.011-8.58,0-1.638-.009-2.643-.9-2.626-2.277S633.036,479,634.7,479q8.581-.014,17.161,0c1.676,0,2.669.836,2.7,2.207.029,1.416-1,2.289-2.751,2.3C648.942,483.509,646.082,483.5,643.222,483.5Z" transform="translate(-40.233 -109.156)"/>
    <path id="Path_1644" data-name="Path 1644" class="cls-3" d="M711.993,370.288c0-2.859-.009-5.719,0-8.578.007-1.665.848-2.667,2.214-2.691s2.282.984,2.286,2.619q.02,8.648,0,17.3c0,1.634-.909,2.642-2.283,2.621S712,380.523,712,378.866C711.984,376.007,711.993,373.147,711.993,370.288Z" transform="translate(-97.668 -22.998)"/>
    <path id="Path_1645" data-name="Path 1645" class="cls-3" d="M668.492,391.05c0,1.686.012,3.372,0,5.058-.015,1.665-.853,2.66-2.221,2.68s-2.272-.987-2.279-2.619q-.021-5.268,0-10.537c.007-1.623.922-2.636,2.291-2.612a2.279,2.279,0,0,1,2.206,2.551C668.509,387.4,668.492,389.224,668.492,391.05Z" transform="translate(-63.188 -40.235)"/>
    <path id="Path_1646" data-name="Path 1646" class="cls-3" d="M620.455,404.791c0,1.076.038,2.154-.01,3.229a2.23,2.23,0,0,1-2.207,2.262,2.19,2.19,0,0,1-2.268-2.192q-.087-3.437,0-6.878a2.193,2.193,0,0,1,2.268-2.192,2.236,2.236,0,0,1,2.208,2.262C620.493,402.449,620.455,403.621,620.455,404.791Z" transform="translate(-28.68 -51.725)"/>
  </g>
</svg>
