<svg xmlns="http://www.w3.org/2000/svg" width="43.853" height="83.516" viewBox="0 0 43.853 83.516">
  <defs>
    <style>
      .cls-1 {
        fill: #ded953;
      }

      .cls-2 {
        fill: #a92ee5;
      }

      .cls-3 {
        fill: #c1487c;
      }

      .cls-4 {
        fill: #53ec8b;
      }

      .cls-5 {
        fill: #fff;
      }

      .cls-6 {
        fill: #ab9ad5;
      }
    </style>
  </defs>
  <g id="Group_2514" data-name="Group 2514" transform="translate(-713.458 -413.004)">
    <path id="Path_1622" data-name="Path 1622" class="cls-1" d="M757.494,467.31H746.551l.251-.372a12.75,12.75,0,0,0-2.04-1.934,14.6,14.6,0,0,1-6.257-17.5,14.44,14.44,0,1,1,20.8,17.513,14.536,14.536,0,0,0-2.07,1.958Zm-3.451-14.232c0,.807,0,1.418,0,2.03,0,3.307-.036,6.614.04,9.919.012.528.526,1.045.807,1.567.292-.508.825-1.01.838-1.526.08-3.046-.211-6.122.1-9.138.4-3.807-1.409-6.763-3.073-9.826-.539-.991-1.261-.943-1.828.1-.94,1.723-1.826,3.475-2.686,5.238a3.179,3.179,0,0,0-.269,1.342c-.02,4.082-.042,8.164.025,12.245.009.527.516,1.046.792,1.569.3-.552.847-1.1.86-1.656.079-3.408.033-6.819.041-10.229,0-.542.063-1.083.1-1.631Zm-1.134,7.488H752.9c0-1.648.05-3.3-.037-4.944-.02-.39-.5-.756-.766-1.134-.309.386-.877.767-.886,1.16q-.112,4.866-.01,9.735c.009.41.548.81.842,1.214.288-.414.8-.813.826-1.243C752.968,463.764,752.909,462.163,752.909,460.566Z" transform="translate(-16.66 -17.294)"/>
    <path id="Path_1623" data-name="Path 1623" class="cls-2" d="M761.693,639.146c-1.4,4.294-2.745,8.464-4.163,12.608a1.475,1.475,0,0,1-1.154.668q-12.559.056-25.12-.007a1.6,1.6,0,0,1-1.243-.764c-1.406-4.1-2.725-8.221-4.123-12.505Z" transform="translate(-8.573 -155.93)"/>
    <path id="Path_1624" data-name="Path 1624" class="cls-2" d="M738.645,626.949q-9.07,0-18.139,0c-.974,0-2.008.023-2.045-1.284-.039-1.4,1.026-1.443,2.068-1.442q18.139.007,36.277,0c.893,0,1.878-.075,2.014,1.15.153,1.39-.765,1.581-1.882,1.578C750.84,626.94,744.742,626.949,738.645,626.949Z" transform="translate(-3.449 -145.643)"/>
    <path id="Path_1625" data-name="Path 1625" class="cls-3" d="M777.258,539.955c-2.282,0-4.295-.059-6.3.039-.535.026-1.047.529-1.57.813.515.289,1.016.795,1.548.828,1.7.108,3.409.078,5.112.028,1.052-.031,1.451.322,1.012,1.547-1.937,0-3.941-.062-5.938.038a5.28,5.28,0,0,0-1.73.795c.555.3,1.1.832,1.669.862,2,.107,4,.041,6.553.041-.492.753-.75,1.509-1.025,1.515-3.5.08-7,.053-10.572.053v-8.163h11.138C777.184,538.8,777.214,539.275,777.258,539.955Z" transform="translate(-36.241 -86.43)"/>
    <path id="Path_1626" data-name="Path 1626" class="cls-4" d="M746.453,589.171c-3.8,1.518-8.78-1.34-9.4-6.567,4.36-1.946,9.079.262,10.444,5.138-1.71-1-3.212-1.951-4.785-2.762-.486-.25-1.507-.376-1.7-.121-.666.89.3,1.21.873,1.566C743.368,587.345,744.873,588.225,746.453,589.171Z" transform="translate(-16.269 -116.458)"/>
    <path id="Path_1627" data-name="Path 1627" class="cls-4" d="M797.585,589.468c1.709-1.009,3.2-1.806,4.594-2.756.491-.335,1.146-1.231,1-1.545-.458-1.013-1.195-.276-1.781.057-1.517.862-3.016,1.757-4.591,2.679.6-4.4,5.271-6.724,10.235-5.2A7.425,7.425,0,0,1,797.585,589.468Z" transform="translate(-57.474 -116.687)"/>
    <path id="Path_1628" data-name="Path 1628" class="cls-3" d="M783,583.081c0,1.908.054,3.818-.039,5.721-.024.487-.513.953-.789,1.428-.32-.484-.908-.962-.918-1.452-.077-3.814-.071-7.631,0-11.445.008-.477.519-.945.8-1.417.318.48.881.947.909,1.444C783.063,579.261,783,581.173,783,583.081Z" transform="translate(-46.707 -112.331)"/>
    <path id="Path_1629" data-name="Path 1629" class="cls-1" d="M782.95,415.117a3.538,3.538,0,0,1-.089,1.209,1.2,1.2,0,0,1-.825.674,1.093,1.093,0,0,1-.813-.678,5.7,5.7,0,0,1-.039-2.128c.088-.437.563-.8.864-1.19a8.461,8.461,0,0,1,.854,1.2,2.267,2.267,0,0,1,.022.909Z" transform="translate(-46.641 0)"/>
    <path id="Path_1630" data-name="Path 1630" class="cls-1" d="M746.94,423.161c.264-.377.389-.756.61-.824.29-.089.824-.052.959.139a18.143,18.143,0,0,1,1.461,2.5.848.848,0,0,1-.3.775c-.265.144-.843.2-.962.046C748.061,424.963,747.518,424.048,746.94,423.161Z" transform="translate(-23.087 -6.404)"/>
    <path id="Path_1631" data-name="Path 1631" class="cls-1" d="M814.531,423.121c-.582.936-1.08,1.824-1.684,2.633-.125.168-.721.169-.954.019a.979.979,0,0,1-.349-.877,14.731,14.731,0,0,1,1.377-2.373,1.027,1.027,0,0,1,.935-.216C814.119,422.4,814.277,422.8,814.531,423.121Z" transform="translate(-67.617 -6.392)"/>
    <path id="Path_1632" data-name="Path 1632" class="cls-1" d="M726.96,512.37l-3.444,1.452c-.111-.425-.428-1.134-.3-1.229a12.641,12.641,0,0,1,2.622-1.5c.233-.1.718.419,1.087.654Z" transform="translate(-6.709 -67.624)"/>
    <path id="Path_1633" data-name="Path 1633" class="cls-1" d="M726.575,449.273c-.166.143-.572.648-.708.583a24.6,24.6,0,0,1-2.981-1.691,1.409,1.409,0,0,1,.337-1C723.819,446.694,726.523,448.246,726.575,449.273Z" transform="translate(-6.486 -23.495)"/>
    <path id="Path_1634" data-name="Path 1634" class="cls-1" d="M837.385,513.219c-.16.138-.568.64-.693.577a26.49,26.49,0,0,1-2.968-1.761,1.506,1.506,0,0,1,.419-.966C834.778,510.669,837.328,512.221,837.385,513.219Z" transform="translate(-82.918 -67.574)"/>
    <path id="Path_1635" data-name="Path 1635" class="cls-1" d="M837.753,447.915a14.65,14.65,0,0,1-1.914,1.38,5.57,5.57,0,0,1-1.816.413c-.047.006-.338-.926-.24-.989a26.487,26.487,0,0,1,3-1.646C836.9,447.019,837.255,447.47,837.753,447.915Z" transform="translate(-82.953 -23.488)"/>
    <path id="Path_1636" data-name="Path 1636" class="cls-1" d="M715.478,482.36a2.882,2.882,0,0,1-1.062-.027,4.354,4.354,0,0,1-.958-.781c.294-.289.551-.762.889-.827a5.843,5.843,0,0,1,2.132-.021c.405.074.743.513,1.112.788a8.451,8.451,0,0,1-1.2.856,2.265,2.265,0,0,1-.909.022Z" transform="translate(0 -46.62)"/>
    <path id="Path_1637" data-name="Path 1637" class="cls-1" d="M843.687,482.352a2.591,2.591,0,0,1-1.063-.03,1.585,1.585,0,0,1-.788-.878c-.046-.178.447-.669.751-.725a5.2,5.2,0,0,1,1.987-.017,4.239,4.239,0,0,1,1.254.811,8.754,8.754,0,0,1-1.228.831,2.347,2.347,0,0,1-.914.021Z" transform="translate(-88.518 -46.618)"/>
    <path id="Path_1638" data-name="Path 1638" class="cls-3" d="M776.977,570.852H781.4l.007.412H777Z" transform="translate(-43.798 -108.84)"/>
    <path id="Path_1639" data-name="Path 1639" class="cls-5" d="M777,469.3h-4.252c-.034.548-.1,1.089-.1,1.631-.008,3.41.039,6.821-.041,10.229-.013.559-.56,1.1-.86,1.656-.276-.523-.784-1.042-.792-1.569-.066-4.081-.045-8.163-.025-12.245a3.178,3.178,0,0,1,.269-1.342c.861-1.763,1.747-3.516,2.686-5.238.567-1.04,1.289-1.089,1.828-.1,1.664,3.063,3.469,6.018,3.073,9.826-.314,3.016-.023,6.091-.1,9.138-.014.516-.546,1.018-.838,1.526-.282-.522-.8-1.039-.808-1.567-.075-3.3-.039-6.612-.04-9.919C776.995,470.719,777,470.108,777,469.3Zm-.589-1.909-1.571-3.066-1.554,3.066Z" transform="translate(-39.613 -33.517)"/>
    <path id="Path_1640" data-name="Path 1640" class="cls-5" d="M782.963,497c0,1.6.06,3.2-.039,4.788-.027.43-.537.83-.826,1.243-.293-.4-.833-.8-.842-1.214q-.1-4.866.01-9.735c.009-.393.577-.774.886-1.16.267.377.745.743.766,1.134.087,1.644.037,3.3.037,4.944Z" transform="translate(-46.715 -53.724)"/>
    <path id="Path_1641" data-name="Path 1641" class="cls-6" d="M781.677,473.414h-3.125l1.554-3.066Z" transform="translate(-44.884 -39.54)"/>
  </g>
</svg>
