<svg xmlns="http://www.w3.org/2000/svg" width="68.569" height="75.203" viewBox="0 0 68.569 75.203">
  <defs>
    <style>
      .cls-1 {
        fill: #fd7060;
      }

      .cls-2 {
        fill: #fdfdfd;
      }

      .cls-3 {
        fill: #fda999;
      }
    </style>
  </defs>
  <g id="Group_2510" data-name="Group 2510" transform="translate(-413.141 -40.805)">
    <path id="Path_1589" data-name="Path 1589" class="cls-1" d="M450.9,88.739c0,6.307.039,12.615-.033,18.921-.015,1.313.408,1.6,1.628,1.568,2.777-.084,5.558-.044,8.337-.021,2.227.018,3.633,1.341,3.655,3.375.023,2.072-1.33,3.407-3.574,3.411q-13.459.026-26.918,0c-2.274,0-3.624-1.3-3.628-3.363a3.316,3.316,0,0,1,3.607-3.423c2.886-.028,5.774-.051,8.659.014,1.057.024,1.354-.315,1.346-1.357q-.068-8.9,0-17.8c.01-1.137-.334-1.43-1.443-1.421-6.147.051-12.294,0-18.44.044a4.631,4.631,0,0,1-3.566-1.476c-1.978-2.028-4.011-4-6-6.02-1.853-1.88-1.851-3.695.01-5.586,1.987-2.02,4.023-3.99,6-6.02a4.622,4.622,0,0,1,3.568-1.469c6.093.044,12.187-.017,18.28.048,1.261.014,1.611-.327,1.6-1.594-.062-7.268-.041-14.537-.029-21.806,0-2.305,1.211-3.791,3.128-3.948a3.448,3.448,0,0,1,3.809,3.587c.151,3.193.151,3.193,3.3,3.194,5.452,0,10.9.038,16.356-.019a4.884,4.884,0,0,1,3.852,1.561c1.884,1.969,3.853,3.857,5.77,5.795,2.032,2.054,2.049,3.795.056,5.811s-4.02,3.993-6,6.016a4.468,4.468,0,0,1-3.435,1.394c-6.093-.04-12.187.027-18.28-.05-1.378-.018-1.658.417-1.645,1.712C450.934,76.126,450.9,82.433,450.9,88.739ZM460.474,61.3q4.083,0,8.165,0c1.047,0,4.178-2.257,4.475-3.223a.741.741,0,0,0-.02-.442c-.346-.95-3.378-3.184-4.338-3.185-5.5-.005-10.993.016-16.49-.018-.924-.006-1.367.178-1.309,1.223.082,1.49.066,2.989,0,4.481-.04.919.287,1.2,1.19,1.18C454.923,61.264,457.7,61.295,460.474,61.3ZM434.433,81.916c2.72,0,5.44-.028,8.16.015.933.015,1.37-.231,1.323-1.252-.068-1.49-.057-2.987,0-4.479.033-.931-.227-1.335-1.247-1.328-5.547.039-11.094.015-16.641.024-.807,0-4.095,2.684-4.2,3.391a.81.81,0,0,0,.036.31c.239.906,3.423,3.312,4.406,3.315C428.992,81.919,431.712,81.915,434.433,81.916Z"/>
    <path id="Path_1590" data-name="Path 1590" class="cls-2" d="M540.522,90.138c-2.775,0-5.551-.032-8.325.016-.9.015-1.229-.261-1.19-1.18.065-1.491.08-2.991,0-4.481-.058-1.045.385-1.229,1.309-1.223,5.5.034,10.993.013,16.49.018.96,0,3.992,2.235,4.337,3.185a.741.741,0,0,1,.02.442c-.3.966-3.427,3.22-4.475,3.223Q544.6,90.145,540.522,90.138Z" transform="translate(-80.048 -28.841)"/>
    <path id="Path_1591" data-name="Path 1591" class="cls-3" d="M452.818,154.037c-2.72,0-5.44,0-8.16,0-.983,0-4.167-2.409-4.406-3.315a.81.81,0,0,1-.036-.31c.1-.707,3.388-3.39,4.2-3.391,5.547-.009,11.094.015,16.641-.024,1.02-.007,1.28.4,1.247,1.328-.054,1.491-.064,2.989,0,4.479.047,1.021-.391,1.267-1.323,1.252C458.258,154.01,455.538,154.037,452.818,154.037Z" transform="translate(-18.385 -72.121)"/>
  </g>
</svg>
