<svg xmlns="http://www.w3.org/2000/svg" width="91.347" height="79.906" viewBox="0 0 91.347 79.906">
  <defs>
    <style>
      .cls-1 {
        fill: #43748a;
      }

      .cls-2 {
        fill: #fff;
      }

      .cls-3 {
        fill: #5e7cc1;
      }

      .cls-4 {
        fill: #618894;
      }
    </style>
  </defs>
  <g id="Group_2513" data-name="Group 2513" transform="translate(-1018.523 -483.189)">
    <path id="Path_1608" data-name="Path 1608" class="cls-1" d="M1046.578,501.146c.308-1.142.587-2.176.935-3.467,1.965,1.689,3.821,3.252,5.628,4.871a1.366,1.366,0,0,1,.37,1.09c-.55,2.68-1.167,5.345-1.8,8.153l-2.279-1.406-1.475,1.586c-.221-1.6-.453-2.833-.553-4.079-.222-2.777-1.751-4.33-4.12-4.094-2.232.223-3.589,2.036-3.167,4.723a58.212,58.212,0,0,0,1.982,9.056,4.071,4.071,0,0,1-.779,3.926c-.463.708-.844,1.277-.159,2.208,5.5,7.479,8.449,16.124,11.4,25.1-1.847.208-3.531.423-5.22.585-5.353.515-10.722.907-16.057,1.566-2.115.261-3.686-.625-5.368-1.508-4.12-2.162-4.112-2.155-3.194-6.586,1.429-6.9,2.534-13.881,4.38-20.663,1.078-3.963,3.321-7.611,5.058-11.392a10.287,10.287,0,0,0,.695-1.391,23.757,23.757,0,0,0-7.786,6.622c-.495.6-.926,1.252-1.444,1.829a2.88,2.88,0,0,1-4.008.494,2.827,2.827,0,0,1-.484-4.009C1025.946,505.235,1034.388,499.45,1046.578,501.146Z" transform="translate(0 -9.291)"/>
    <path id="Path_1609" data-name="Path 1609" class="cls-1" d="M1080.8,520.7c-.066-2.309.573-3.472,2.13-3.83,1.983-.456,3.456.877,3.639,3.318a27.44,27.44,0,0,0,5.457,14.736,44.666,44.666,0,0,0,4.384,4.707c1.571,1.557,1.882,3.242.69,4.534-1.173,1.273-2.82,1.236-4.454-.164A33.528,33.528,0,0,1,1080.8,520.7Z" transform="translate(-39.932 -21.543)"/>
    <path id="Path_1610" data-name="Path 1610" d="M1131.307,497.957c1.144,1.5,2.213,2.882,3.243,4.295.053.072-.229.388-.745,1.22a8.831,8.831,0,0,0-.848-1.607q-7.652-8.433-15.342-16.831a3.806,3.806,0,0,1-.7-.809,3.708,3.708,0,0,1-.174-1.036c.347.075.809.033,1.021.243,1.055,1.045,2.044,2.157,3.111,3.3a20.306,20.306,0,0,0,2.333-1.8c1.266-1.3,2.51-1.228,3.986-.367a16.229,16.229,0,0,1,6.843,7.58c.626,1.4.67,2.575-.663,3.637A20.666,20.666,0,0,0,1131.307,497.957Z" transform="translate(-62.981)"/>
    <path id="Path_1611" data-name="Path 1611" class="cls-2" d="M1026.074,645.836a24.779,24.779,0,0,0,4.512,1.288,30.956,30.956,0,0,0,5.25-.4,28.678,28.678,0,0,1-2.272,3.609c-2.222,2.557-4.467,5.112-6.9,7.458a4.366,4.366,0,0,1-6.268-.3,4.219,4.219,0,0,1,.018-5.983c1.975-1.895,4.185-3.544,6.292-5.3Z" transform="translate(-0.406 -104.294)"/>
    <path id="Path_1612" data-name="Path 1612" class="cls-2" d="M1117.516,495.407l10.668,11.7c-3.247,4.265-9.753,4.264-12.706.053a3.849,3.849,0,0,1-.358-2.314c.068-.938.439-1.85.6-2.788a2.316,2.316,0,0,0-.116-1.343c-.3-.59-1.231-1.23-1.111-1.589a9.107,9.107,0,0,1,1.623-2.519A10.029,10.029,0,0,1,1117.516,495.407Z" transform="translate(-61.529 -7.835)"/>
    <path id="Path_1613" data-name="Path 1613" class="cls-2" d="M1089.2,644.493c.348,3.452.825,6.68.948,9.922a4.12,4.12,0,0,1-4.055,3.989,4.272,4.272,0,0,1-4.678-3.52c-.531-3.041-.837-6.121-1.281-9.5Z" transform="translate(-39.508 -103.433)"/>
    <path id="Path_1614" data-name="Path 1614" class="cls-3" d="M1129.728,568.176l-.543-1.586a5.947,5.947,0,0,1,.907-.438c1.722-.468,2.731-1.188,2.767-3.362.043-2.591,2.545-4.561,5.221-4.82a5.989,5.989,0,0,1,6.022,3.641,5.892,5.892,0,0,1-1.76,6.8c-2.071,1.678-5.276,2.034-7.089.162-1.687-1.742-3.069-1.461-4.793-.552A3.675,3.675,0,0,1,1129.728,568.176Zm8.819-8.7a4.365,4.365,0,1,0,4.47,4.4A4.41,4.41,0,0,0,1138.547,559.478Z" transform="translate(-70.959 -47.935)"/>
    <path id="Path_1615" data-name="Path 1615" class="cls-4" d="M1149.817,668.891c2.284-.161,4.3-.34,6.326-.427a4.988,4.988,0,0,1,1.935.311c1.211.459,2.875.907,2.546,2.471-.149.708-1.792,1.488-2.8,1.549a46.846,46.846,0,0,1-6.962-.3c-.378-.033-.9-.659-1-1.092A12.324,12.324,0,0,1,1149.817,668.891Z" transform="translate(-84.162 -118.801)"/>
    <path id="Path_1616" data-name="Path 1616" class="cls-4" d="M1242.732,668.88c2.335-.154,4.411-.314,6.49-.41a4.227,4.227,0,0,1,1.583.258c1.275.458,2.945.806,2.8,2.519-.142,1.63-1.857,1.565-3.01,1.6a53.243,53.243,0,0,1-6.775-.343c-.4-.04-.9-.754-1.037-1.244A10.122,10.122,0,0,1,1242.732,668.88Z" transform="translate(-143.738 -118.805)"/>
    <path id="Path_1617" data-name="Path 1617" class="cls-4" d="M1203.5,693.117a39.216,39.216,0,0,1,4.427.5,2.2,2.2,0,0,1,1.4,1.348,1.846,1.846,0,0,1-.878,1.551,13.007,13.007,0,0,1-3.868,1.159,26.723,26.723,0,0,1-4.1-.255c-1.082-.058-2.08.11-2.083-1.616,0-1.594.481-2.284,2.047-2.308,1.014-.016,2.026-.136,3.039-.209Z" transform="translate(-115.341 -134.612)"/>
    <path id="Path_1618" data-name="Path 1618" class="cls-4" d="M1184.5,694.56c.515,3.742.318,3.954-2.877,3.495a3.938,3.938,0,0,1-1.526-.392c-.44-.28-1-.817-.992-1.232a1.662,1.662,0,0,1,.984-1.249C1181.5,694.858,1182.964,694.758,1184.5,694.56Z" transform="translate(-102.97 -135.537)"/>
    <path id="Path_1619" data-name="Path 1619" class="cls-4" d="M1228.826,669.437v3.629a40.217,40.217,0,0,1-4.353-.476,1.829,1.829,0,0,1-1.187-1.282,1.807,1.807,0,0,1,1.158-1.287A40.747,40.747,0,0,1,1228.826,669.437Z" transform="translate(-131.299 -119.428)"/>
    <path id="Path_1620" data-name="Path 1620" class="cls-4" d="M1135.843,669.414V673.1c-1.6-.194-3.1-.291-4.562-.61a1.648,1.648,0,0,1-.993-1.249,1.675,1.675,0,0,1,1.055-1.2C1132.757,669.724,1134.221,669.622,1135.843,669.414Z" transform="translate(-71.666 -119.413)"/>
    <path id="Path_1621" data-name="Path 1621" class="cls-2" d="M1147.5,562.22a4.365,4.365,0,1,1-4.353,4.327A4.421,4.421,0,0,1,1147.5,562.22Z" transform="translate(-79.912 -50.677)"/>
  </g>
</svg>
