<svg xmlns="http://www.w3.org/2000/svg" width="76.312" height="81.446" viewBox="0 0 76.312 81.446">
  <defs>
    <style>
      .cls-1 {
        fill: #481d78;
      }

      .cls-2 {
        fill: #fff;
      }
    </style>
  </defs>
  <g id="Group_2512" data-name="Group 2512" transform="translate(-225.05 -264.005)">
    <path id="Path_1599" data-name="Path 1599" class="cls-1" d="M328.643,279.272a7.634,7.634,0,1,1,7.629-7.56A7.73,7.73,0,0,1,328.643,279.272Z" transform="translate(-65.43)"/>
    <path id="Path_1600" data-name="Path 1600" class="cls-1" d="M240.675,367.272a7.634,7.634,0,1,1,7.6-7.592A7.726,7.726,0,0,1,240.675,367.272Z" transform="translate(-5.424 -60.006)"/>
    <path id="Path_1601" data-name="Path 1601" class="cls-1" d="M424.269,359.617A7.634,7.634,0,1,1,416.538,352,7.729,7.729,0,0,1,424.269,359.617Z" transform="translate(-125.434 -60.002)"/>
    <path id="Path_1602" data-name="Path 1602" class="cls-1" d="M336.268,447.711A7.634,7.634,0,1,1,328.63,440,7.729,7.729,0,0,1,336.268,447.711Z" transform="translate(-65.427 -120.01)"/>
    <path id="Path_1603" data-name="Path 1603" class="cls-2" d="M320.47,372.737c-1.552,0-3.079.02-4.6-.005-1.734-.029-2.839-1.03-2.849-2.529a2.562,2.562,0,0,1,2.824-2.551c1.528-.027,3.056-.005,4.8-.005,0-1.6-.012-3.11,0-4.621.018-1.869.98-3,2.528-3.008s2.531,1.127,2.558,2.982c.021,1.428.025,2.856.039,4.284a2.249,2.249,0,0,0,.135.363c1.423,0,2.935-.012,4.446,0,1.871.019,3,.979,3.009,2.528s-1.123,2.528-2.983,2.556c-1.428.022-2.856.026-4.284.041a2.2,2.2,0,0,0-.362.136c0,1.423.012,2.934,0,4.446-.019,1.871-.981,3-2.53,3.008s-2.526-1.121-2.554-2.984c-.022-1.428-.026-2.856-.041-4.284A2.134,2.134,0,0,0,320.47,372.737Z" transform="translate(-59.983 -65.469)"/>
    <path id="Path_1604" data-name="Path 1604" class="cls-1" d="M329.958,312.183a10,10,0,0,1,3.415,7.3,2.5,2.5,0,0,1-2.713,2.806q-7.459.047-14.919,0a2.5,2.5,0,0,1-2.7-2.821,9.86,9.86,0,0,1,3.36-7.225C322.392,315.516,324.852,315.517,329.958,312.183Z" transform="translate(-60 -32.852)"/>
    <path id="Path_1605" data-name="Path 1605" class="cls-1" d="M228.482,400.15c4.562,3.337,8.948,3.323,13.463,0a9.539,9.539,0,0,1,3.383,7.953,2.3,2.3,0,0,1-2.517,2.161c-5.079.026-10.158.037-15.237-.007a2.437,2.437,0,0,1-2.524-2.669A9.934,9.934,0,0,1,228.482,400.15Z" transform="translate(0 -92.835)"/>
    <path id="Path_1606" data-name="Path 1606" class="cls-1" d="M404.465,400.13c4.567,3.378,9,3.33,13.484.01a9.934,9.934,0,0,1,3.417,7.584,2.413,2.413,0,0,1-2.508,2.523q-7.618.066-15.236,0a2.478,2.478,0,0,1-2.582-2.776A10.055,10.055,0,0,1,404.465,400.13Z" transform="translate(-120.004 -92.822)"/>
    <path id="Path_1607" data-name="Path 1607" class="cls-1" d="M316.467,488.139c4.553,3.333,8.939,3.334,13.324.122,2.622,1.45,3.889,5.928,3.562,7.819a2.407,2.407,0,0,1-2.523,2.18c-5.079.031-10.158.038-15.236,0a2.442,2.442,0,0,1-2.546-2.65A10.012,10.012,0,0,1,316.467,488.139Z" transform="translate(-60.004 -152.834)"/>
  </g>
</svg>
