<svg xmlns="http://www.w3.org/2000/svg" xmlns:xlink="http://www.w3.org/1999/xlink" width="497" height="309" viewBox="0 0 497 309">
  <defs>
    <style>
      .cls-1, .cls-2 {
        fill: #fff;
      }

      .cls-1 {
        stroke: #707070;
      }

      .cls-3 {
        fill: #2a2828;
        font-size: 16px;
        font-family: Nunito-Bold, Nunito;
        font-weight: 700;
      }

      .cls-4 {
        fill: #999;
      }

      .cls-4, .cls-6, .cls-8 {
        font-size: 13px;
      }

      .cls-4, .cls-8 {
        font-family: Nunito-Regular, Nunito;
      }

      .cls-18, .cls-19, .cls-20, .cls-24, .cls-5 {
        fill: none;
      }

      .cls-5 {
        stroke: #bcc3cf;
      }

      .cls-22, .cls-6 {
        fill: #313131;
      }

      .cls-22, .cls-6, .cls-7 {
        font-family: Nunito-SemiBold, Nunito;
        font-weight: 600;
      }

      .cls-21, .cls-7 {
        fill: #333;
      }

      .cls-22, .cls-7 {
        font-size: 12px;
      }

      .cls-8 {
        fill: #707070;
      }

      .cls-9 {
        fill: #8eb1a3;
      }

      .cls-10 {
        clip-path: url(#clip-path);
      }

      .cls-11 {
        fill: #c66767;
      }

      .cls-12 {
        fill: #fecc54;
      }

      .cls-13 {
        fill: #373c44;
      }

      .cls-14 {
        fill: #ce8282;
      }

      .cls-15 {
        fill: #d19582;
      }

      .cls-16 {
        fill: #f2c3b3;
      }

      .cls-17 {
        fill: #e5b5a3;
      }

      .cls-18 {
        stroke: #373c44;
        stroke-width: 0.75px;
      }

      .cls-18, .cls-19 {
        stroke-miterlimit: 10;
      }

      .cls-19 {
        stroke: #fff;
        stroke-width: 0.5px;
      }

      .cls-20 {
        stroke: #333;
      }

      .cls-23 {
        stroke: none;
      }

      .cls-25 {
        filter: url(#Rectangle_2029);
      }
    </style>
    <filter id="Rectangle_2029" x="0" y="0" width="497" height="309" filterUnits="userSpaceOnUse">
      <feOffset dy="5" input="SourceAlpha"/>
      <feGaussianBlur stdDeviation="5" result="blur"/>
      <feFlood flood-color="#265aa8" flood-opacity="0.161"/>
      <feComposite operator="in" in2="blur"/>
      <feComposite in="SourceGraphic"/>
    </filter>
    <clipPath id="clip-path">
      <circle id="Ellipse_764" data-name="Ellipse 764" class="cls-1" cx="13.5" cy="13.5" r="13.5"/>
    </clipPath>
  </defs>
  <g id="Group_3504" data-name="Group 3504" transform="translate(-629.003 -396.699)">
    <g class="cls-25" transform="matrix(1, 0, 0, 1, 629, 396.7)">
      <rect id="Rectangle_2029-2" data-name="Rectangle 2029" class="cls-2" width="467" height="279" rx="10" transform="translate(15 10)"/>
    </g>
    <text id="Tambah_goal" data-name="Tambah goal" class="cls-3" transform="translate(661.003 432.699)"><tspan x="0" y="0">Tambah goal</tspan></text>
    <text id="Meningkatkan_omset_penjualan" data-name="Meningkatkan omset penjualan" class="cls-4" transform="translate(670.152 489.032)"><tspan x="0" y="0">Meningkatkan omset penjualan</tspan></text>
    <g id="Rectangle_2075" data-name="Rectangle 2075" class="cls-5" transform="translate(661.123 465.618)">
      <rect class="cls-23" width="431.938" height="38.621" rx="5"/>
      <rect class="cls-24" x="0.5" y="0.5" width="430.938" height="37.621" rx="4.5"/>
    </g>
    <text id="Andika" class="cls-6" transform="translate(721.003 530.699)"><tspan x="-20.748" y="0">Andika</tspan></text>
    <text id="_1_Januari_2020_-_20_Juli_2020" data-name="1 Januari  2020 - 20 Juli 2020" class="cls-7" transform="translate(931.691 528.762)"><tspan x="0" y="0" xml:space="preserve">1 Januari  2020 - 20 Juli 2020</tspan></text>
    <text id="_250.000.000" data-name="250.000.000" class="cls-8" transform="translate(681.003 629.699)"><tspan x="0" y="0">250.000.000</tspan></text>
    <g id="Group_3473" data-name="Group 3473" transform="translate(-619.997 -3411.824)">
      <circle id="Ellipse_763" data-name="Ellipse 763" class="cls-9" cx="13.5" cy="13.5" r="13.5" transform="translate(1282 3924.522)"/>
      <g id="Mask_Group_81" data-name="Mask Group 81" class="cls-10" transform="translate(1282 3924.522)">
        <g id="Group_3473-2" data-name="Group 3473" transform="translate(5.297 4.911)">
          <path id="Path_1684" data-name="Path 1684" class="cls-11" d="M369.973,167.218a2.063,2.063,0,0,0,2.313-2.323,7.44,7.44,0,0,0-2.257-.332,7.75,7.75,0,0,0-2.229.315A2.019,2.019,0,0,0,369.973,167.218Z" transform="translate(-361.789 -149.952)"/>
          <path id="Path_1685" data-name="Path 1685" class="cls-12" d="M340.437,166.565a2.063,2.063,0,0,1-2.313,2.323,2.019,2.019,0,0,1-2.172-2.34c-4.814,1.437-6.012,7.31-6.012,7.31h15.8S345.072,168.031,340.437,166.565Z" transform="translate(-329.94 -151.622)"/>
          <path id="Path_1686" data-name="Path 1686" class="cls-13" d="M350.53,89.014a2.241,2.241,0,0,0,0,3.171c1.537,1.591,9.028-.079,9.028-.079a3.163,3.163,0,0,0-.678-3.74c-1.793-1.552-5.968-1.07-6.014-1.07S350.53,89.014,350.53,89.014Z" transform="translate(-346.689 -84.88)"/>
          <circle id="Ellipse_741" data-name="Ellipse 741" class="cls-14" cx="1.241" cy="1.241" r="1.241" transform="translate(2.149 6.647)"/>
          <circle id="Ellipse_742" data-name="Ellipse 742" class="cls-14" cx="1.241" cy="1.241" r="1.241" transform="translate(11.36 6.647)"/>
          <path id="Path_1687" data-name="Path 1687" class="cls-15" d="M376.057,135.945l-.21-2.756-2.152.3-.352,4.028A3.884,3.884,0,0,0,376.057,135.945Z" transform="translate(-366.46 -123.554)"/>
          <path id="Path_1688" data-name="Path 1688" class="cls-16" d="M353.406,87.089a6.8,6.8,0,0,0,.062,1.515,3.789,3.789,0,0,0,1.947,3.065,5.012,5.012,0,0,0,4.059.337,3.761,3.761,0,0,0,2.118-2.085,9.194,9.194,0,0,0,.386-3.7c-.22-4.4-3.806-4.338-3.806-4.338S353.388,81.516,353.406,87.089Z" transform="translate(-349.669 -80.382)"/>
          <path id="Path_1689" data-name="Path 1689" class="cls-17" d="M372.524,152.132l-.155,1.773s.063.886,1.5,1.055a1.45,1.45,0,0,0,1.6-1.329l-.233-3.067A3.884,3.884,0,0,1,372.524,152.132Z" transform="translate(-365.64 -138.173)"/>
          <path id="Path_1693" data-name="Path 1693" class="cls-18" d="M376.918,128.68a.794.794,0,0,0,1.214,0" transform="translate(-369.467 -119.76)"/>
          <circle id="Ellipse_743" data-name="Ellipse 743" class="cls-14" cx="0.463" cy="0.463" r="0.463" transform="translate(5.372 8.313)"/>
          <circle id="Ellipse_744" data-name="Ellipse 744" class="cls-14" cx="0.463" cy="0.463" r="0.463" transform="translate(9.668 8.457)"/>
          <path id="Path_1694" data-name="Path 1694" class="cls-13" d="M376.979,131.936s.661.2.955,0c0,.647-.043,1.251-.238,1.2s-.191-.366-.191-.366.021.587-.2.536-.23-.723-.23-.723,0,.417-.255.315S376.979,131.936,376.979,131.936Z" transform="translate(-369.315 -120.537)"/>
          <path id="Path_1695" data-name="Path 1695" class="cls-19" d="M374.223,118.877a1.707,1.707,0,0,1,2.029,0" transform="translate(-367.2 -111.209)"/>
          <path id="Path_1696" data-name="Path 1696" class="cls-13" d="M349.106,77.459a1.345,1.345,0,0,1-.844.63,1.077,1.077,0,0,1-1.4-.536,2.056,2.056,0,0,1,.216-1.963s-1.507-1.229-.38-2.2a1.174,1.174,0,0,1,1.867.169,1.306,1.306,0,0,1,1.18-1.116,1.414,1.414,0,0,1,1.4.947,1.753,1.753,0,0,1,1.817-.764,1.275,1.275,0,0,1,1,1.5,1.376,1.376,0,0,1,1.039-.15,2.041,2.041,0,0,1,1.3,2.548,3.82,3.82,0,0,0,.156,1.877c.089.265-.05.473-.156.452-.276-.054-.317-2.732-1.354-2.66-.049.591-.322,1.557-1.124,1.329a.992.992,0,0,1-.483-.342c-.207-.254-.307-.578-.537-.816a1.876,1.876,0,0,0-.526-.387,1.728,1.728,0,0,0-1.463.005A3.628,3.628,0,0,0,349.106,77.459Z" transform="translate(-343.684 -72.438)"/>
          <rect id="Rectangle_2128" data-name="Rectangle 2128" class="cls-19" width="3.303" height="2.404" transform="translate(3.72 6.267)"/>
          <rect id="Rectangle_2129" data-name="Rectangle 2129" class="cls-19" width="3.283" height="2.404" transform="translate(9.052 6.345)"/>
        </g>
      </g>
    </g>
    <g id="Ellipse_772" data-name="Ellipse 772" class="cls-20" transform="translate(897.745 512.699)">
      <circle class="cls-23" cx="13.5" cy="13.5" r="13.5"/>
      <circle class="cls-24" cx="13.5" cy="13.5" r="13"/>
    </g>
    <g id="Group_3505" data-name="Group 3505" transform="translate(905.816 521.316)">
      <g id="Rectangle_1444" data-name="Rectangle 1444" class="cls-20" transform="translate(0 1.034)">
        <rect class="cls-23" width="10.857" height="9.306" rx="2"/>
        <rect class="cls-24" x="0.5" y="0.5" width="9.857" height="8.306" rx="1.5"/>
      </g>
      <g id="Rectangle_1445" data-name="Rectangle 1445" class="cls-20" transform="translate(0 1.034)">
        <path class="cls-23" d="M2,0H8.857a2,2,0,0,1,2,2V4.653a0,0,0,0,1,0,0H0a0,0,0,0,1,0,0V2A2,2,0,0,1,2,0Z"/>
        <path class="cls-24" d="M2,.5H8.857a1.5,1.5,0,0,1,1.5,1.5V3.653a.5.5,0,0,1-.5.5H1a.5.5,0,0,1-.5-.5V2A1.5,1.5,0,0,1,2,.5Z"/>
      </g>
      <rect id="Rectangle_1446" data-name="Rectangle 1446" class="cls-21" width="0.517" height="2.068" transform="translate(1.551 0)"/>
      <rect id="Rectangle_1447" data-name="Rectangle 1447" class="cls-21" width="0.517" height="2.068" transform="translate(8.789 0)"/>
    </g>
    <g id="Rectangle_2142" data-name="Rectangle 2142" class="cls-5" transform="translate(661.122 606.618)">
      <rect class="cls-23" width="188.938" height="38.621" rx="5"/>
      <rect class="cls-24" x="0.5" y="0.5" width="187.938" height="37.621" rx="4.5"/>
    </g>
    <text id="Start_Value" data-name="Start Value" class="cls-22" transform="translate(691.003 597.699)"><tspan x="-30.324" y="0">Start Value</tspan></text>
    <text id="_250.000.000-2" data-name="250.000.000" class="cls-8" transform="translate(924.003 629.699)"><tspan x="0" y="0">250.000.000</tspan></text>
    <g id="Rectangle_2143" data-name="Rectangle 2143" class="cls-5" transform="translate(904.122 606.618)">
      <rect class="cls-23" width="188.938" height="38.621" rx="5"/>
      <rect class="cls-24" x="0.5" y="0.5" width="187.938" height="37.621" rx="4.5"/>
    </g>
    <text id="Target_Value" data-name="Target Value" class="cls-22" transform="translate(938.003 597.699)"><tspan x="-34.044" y="0">Target Value</tspan></text>
  </g>
</svg>
