<svg xmlns="http://www.w3.org/2000/svg" width="98.419" height="87.098" viewBox="0 0 98.419 87.098">
  <defs>
    <style>
      .cls-1 {
        fill: #002a54;
      }

      .cls-2 {
        fill: #0073de;
      }

      .cls-3 {
        fill: #ff7381;
      }

      .cls-4 {
        fill: #ffe01b;
      }
    </style>
  </defs>
  <g id="Group_2517" data-name="Group 2517" transform="translate(-130.566 -281.817)">
    <path id="Path_1653" data-name="Path 1653" class="cls-1" d="M190.348,325.509q-19.8,0-39.608,0c-2.59,0-2.921-.332-2.922-2.973q-.007-18.856,0-37.713c0-2.645.342-3,2.915-3q39.7-.006,79.406,0c2.6,0,2.9.314,2.9,2.992q.008,18.856,0,37.713c0,2.728-.271,2.982-3.086,2.982Q210.152,325.511,190.348,325.509ZM214.4,309.154l-5.12-2.938c-3.449-1.98-6.691-4.721-10.4-5.726-3.773-1.022-8.011-.277-12.041-.435a5.163,5.163,0,0,1-2.711-.958c-3.094-2.291-6.085-4.722-9.136-7.071a3.63,3.63,0,0,0-1.779-.973q-6.818-.123-13.639.008c-.505.01-1,.755-1.493,1.158.514.347,1.012.958,1.546.993a30.288,30.288,0,0,0,5.676.013c5.067-.631,9.419.563,12.93,4.416a14.638,14.638,0,0,0,13.774,4.736c4.127-.61,7.736.629,11.173,2.957,3.165,2.144,6.586,3.91,9.863,5.824l-1.752,3.5h10.259l-4.82-8.839Z" transform="translate(-10.707)"/>
    <path id="Path_1654" data-name="Path 1654" class="cls-2" d="M236.8,474.918c-3.625-.554-7.2-.96-10.709-1.678-2.98-.609-3.91-2.245-3.6-5.211q.609-5.746,1.068-11.507c.118-1.491.482-2.815,1.984-3.356,1.555-.56,3.129-.815,4.665.313,4.342,3.188,8.844,3.176,13.1-.006a4.029,4.029,0,0,1,4.616-.241,4.846,4.846,0,0,1,1.992,3.1c.6,3.927.873,7.905,1.3,11.86.292,2.708-.713,4.473-3.4,5.014C244.186,473.934,240.489,474.358,236.8,474.918Z" transform="translate(-57.024 -106.018)"/>
    <path id="Path_1655" data-name="Path 1655" class="cls-2" d="M144.985,474.789c-3.775-.585-7.469-1.028-11.1-1.765-2.566-.52-3.523-2.126-3.279-4.732q.574-6.129,1.192-12.254a3.976,3.976,0,0,1,6.2-2.925c4.63,3.4,9.107,3.459,13.73.015a4.143,4.143,0,0,1,6.369,2.833c.479,4.2.916,8.411,1.347,12.619a3.908,3.908,0,0,1-3.274,4.429C152.472,473.756,148.715,474.211,144.985,474.789Z" transform="translate(0 -105.874)"/>
    <path id="Path_1656" data-name="Path 1656" class="cls-2" d="M328.3,474.747c-3.515-.53-7.151-.936-10.722-1.66-2.818-.572-3.786-2.08-3.557-4.9.337-4.151.708-8.3,1.14-12.442.287-2.753,4.154-4.427,6.326-2.562a10.918,10.918,0,0,0,13.626.054c2.377-1.98,6.027-.222,6.375,2.846q.653,5.737,1.274,11.479c.369,3.433-.6,5-4.01,5.678C335.366,473.909,331.909,474.24,328.3,474.747Z" transform="translate(-113.853 -105.876)"/>
    <path id="Path_1657" data-name="Path 1657" class="cls-3" d="M147.919,421.455a7.654,7.654,0,0,1,7.676-7.691,7.756,7.756,0,0,1,7.844,7.757,7.863,7.863,0,0,1-7.725,7.736A7.733,7.733,0,0,1,147.919,421.455Z" transform="translate(-10.771 -81.901)"/>
    <path id="Path_1658" data-name="Path 1658" class="cls-3" d="M239.825,421.539a7.634,7.634,0,0,1,7.58-7.775,7.74,7.74,0,0,1,7.925,7.672,7.843,7.843,0,0,1-7.823,7.821A7.715,7.715,0,0,1,239.825,421.539Z" transform="translate(-67.818 -81.9)"/>
    <path id="Path_1659" data-name="Path 1659" class="cls-3" d="M339.569,413.761a7.683,7.683,0,0,1,7.607,7.775,7.74,7.74,0,1,1-15.48-.1A7.634,7.634,0,0,1,339.569,413.761Z" transform="translate(-124.843 -81.898)"/>
    <path id="Path_1660" data-name="Path 1660" class="cls-4" d="M231.2,324.168l2.328-3.339,4.82,8.839H228.086l1.752-3.5c-3.277-1.914-6.7-3.68-9.863-5.824-3.438-2.328-7.046-3.567-11.173-2.957a14.638,14.638,0,0,1-13.774-4.736c-3.51-3.853-7.862-5.048-12.93-4.416a30.29,30.29,0,0,1-5.676-.013c-.535-.035-1.032-.646-1.546-.993.5-.4.988-1.148,1.493-1.158q6.818-.136,13.639-.008a3.63,3.63,0,0,1,1.779.973c3.051,2.349,6.042,4.78,9.136,7.071a5.163,5.163,0,0,0,2.711.958c4.03.158,8.268-.587,12.041.435,3.713,1.005,6.955,3.747,10.4,5.726Z" transform="translate(-27.504 -15.014)"/>
  </g>
</svg>
