<svg xmlns="http://www.w3.org/2000/svg" width="32.581" height="102.897" viewBox="0 0 32.581 102.897">
  <defs>
    <style>
      .cls-1 {
        fill: #002a54;
      }

      .cls-2 {
        fill: #ff7381;
      }
    </style>
  </defs>
  <g id="Group_2519" data-name="Group 2519" transform="translate(-879.984 -125.952)">
    <path id="Path_1664" data-name="Path 1664" class="cls-1" d="M898.189,266.061V242.654h-3.7v23.212c-8.011,1.619-14.39-4.076-14.448-12.854-.088-13.436-.047-26.873-.011-40.31a47.424,47.424,0,0,1,.418-8.734c1.266-6.617,5.646-9.974,12.384-9.98q3.491,0,6.981,0c7.225.006,12.151,4.521,12.6,11.836.246,3.964.119,7.953.123,11.931q.016,17.453,0,34.906c0,4.681-1.514,8.68-5.4,11.553C904.505,266.164,901.535,266.457,898.189,266.061Z" transform="translate(0 -37.364)"/>
    <path id="Path_1665" data-name="Path 1665" class="cls-2" d="M913.4,138.472a12.562,12.562,0,1,1-12.608-12.52A12.6,12.6,0,0,1,913.4,138.472Z" transform="translate(-4.555)"/>
  </g>
</svg>
