<svg xmlns="http://www.w3.org/2000/svg" width="120.845" height="74.283" viewBox="0 0 120.845 74.283">
  <defs>
    <style>
      .cls-1 {
        fill: #002a54;
      }

      .cls-2 {
        fill: #ff7381;
      }
    </style>
  </defs>
  <g id="Group_2518" data-name="Group 2518" transform="translate(-982.173 -332.575)">
    <path id="Path_1661" data-name="Path 1661" class="cls-1" d="M982.173,355.078c1.873-.815,3.046-1.385,4.26-1.845,17.734-6.707,35.458-13.443,53.238-20.023a8.925,8.925,0,0,1,5.69-.288c18.273,6.8,36.469,13.8,54.68,20.77.839.321,1.622.786,2.977,1.453-15.121,5.664-30.031,10.358-44.137,16.811-11.546,5.283-21.733,5.082-33.179-.125C1011.813,365.513,997.2,360.777,982.173,355.078Z" transform="translate(0 0)"/>
    <path id="Path_1662" data-name="Path 1662" class="cls-1" d="M1015.924,383.767c10.163,3.88,19.761,7.692,29.489,11.137a10.966,10.966,0,0,0,6.8-.036c9.721-3.445,19.314-7.248,29.347-11.074,0,6.153.638,11.891-.252,17.381a13.9,13.9,0,0,1-5.556,8.255c-10.574,7.144-22.712,8.237-34.892,6.4-6.486-.979-12.85-3.565-18.926-6.212-4.325-1.884-6.3-5.934-6.064-10.953C1016.1,393.878,1015.924,389.072,1015.924,383.767Z" transform="translate(-6.42 -9.758)"/>
    <path id="Path_1663" data-name="Path 1663" class="cls-2" d="M1124.281,398.356h-6.823c0-7.539-.31-15.032.274-22.454.11-1.4,3.787-2.512,6.549-4.206Z" transform="translate(-25.772 -7.457)"/>
  </g>
</svg>
