<svg xmlns="http://www.w3.org/2000/svg" width="112.174" height="75.344" viewBox="0 0 112.174 75.344">
  <defs>
    <style>
      .cls-1 {
        fill: #0073de;
      }

      .cls-2 {
        fill: #ff7381;
      }

      .cls-3 {
        fill: #002a54;
      }
    </style>
  </defs>
  <g id="Group_2516" data-name="Group 2516" transform="translate(-515.084 -290.834)">
    <path id="Path_1647" data-name="Path 1647" class="cls-1" d="M565.932,369.449c-1.674-.589-3.009-.659-3.011,2.1l-8.682-11.053c-2.852,12.057-5.744,24.286-8.647,36.558-3.046,0-5.69.057-8.328-.053a1.9,1.9,0,0,1-1.318-1.146c-3.45-11.72-7.146-23.383-8.541-35.986-3.889,5.029-6.8,10.509-11.676,14.274l-.646-.247a12.228,12.228,0,0,1,.259-3.2c1.609-4.5,3.173-9.04,5.115-13.4,1.816-4.079,4.173-7.914,6.127-11.936a6.829,6.829,0,0,1,5.505-4.018,48.345,48.345,0,0,1,18.581.245,4.626,4.626,0,0,1,2.661,1.87,132.87,132.87,0,0,1,12.1,24.33C565.6,368.239,565.714,368.715,565.932,369.449Z" transform="translate(0 -30.904)"/>
    <path id="Path_1648" data-name="Path 1648" class="cls-1" d="M741.325,371.072c-4.818-5.329-7.541-12.022-11.393-18.057.011,4.029-1.042,8,.191,12.055,1.864,6.138,3.45,12.361,5.214,18.763h-8.458L724.5,395.162h-7.4l-2.33-11.154h-8.491c.206-.916.344-1.62.523-2.313,1.454-5.608,3.158-11.165,4.289-16.837.749-3.753.679-7.67.975-11.513l-.71-.158c-.6,1.065-1.186,2.134-1.793,3.193-1.757,3.058-3.6,6.069-5.252,9.184-.944,1.784-2.075,3.01-4.484,2.714.464-1.606.82-3.372,1.476-5.017,2.962-7.428,5.952-14.846,9.091-22.2a4.762,4.762,0,0,1,2.678-2.343c4.913-1.519,9.944-1.273,14.953-.43a4,4,0,0,1,3.142,2.421c3.9,8.476,7.605,17.023,10.109,26.036.364,1.311.544,2.673.809,4.011Z" transform="translate(-114.832 -29.077)"/>
    <path id="Path_1649" data-name="Path 1649" class="cls-2" d="M568.763,290.834a8.552,8.552,0,0,1-.135,17.1,8.549,8.549,0,0,1,.135-17.1Z" transform="translate(-28.05)"/>
    <path id="Path_1650" data-name="Path 1650" class="cls-3" d="M657.681,445.112a6.09,6.09,0,0,1-.761.219c-2.894.171-2.945.181-3.574-2.607-.788-3.493-1.462-7.012-2.237-10.508a6.559,6.559,0,0,0-.817-1.871c-1.576-2.651-3.238-5.252-4.766-7.929a35.464,35.464,0,0,1-1.612-3.713l.539-.422a19.162,19.162,0,0,1,2.763,2.542c2.1,2.842,4.276,4.885,8.307,3.536,1.509-.5,3.426.208,5.291.378l5.934-5.672.456.383a1.973,1.973,0,0,1,.049.7,8.619,8.619,0,0,1-.614,1.578c-2.019,3.731-4.473,7.291-5.979,11.217C659.169,436.829,658.625,441.082,657.681,445.112Z" transform="translate(-80.076 -79.216)"/>
    <path id="Path_1651" data-name="Path 1651" class="cls-2" d="M735.623,303.113a7.447,7.447,0,0,1,14.892.135,7.446,7.446,0,0,1-14.892-.135Z" transform="translate(-137.078 -3.064)"/>
    <path id="Path_1652" data-name="Path 1652" class="cls-1" d="M673.385,418.2a3.294,3.294,0,1,1-3.231-3.281A3.4,3.4,0,0,1,673.385,418.2Z" transform="translate(-94.299 -77.126)"/>
  </g>
</svg>
